<svg width="21" height="21" viewBox="0 0 21 21" fill="none" xmlns="http://www.w3.org/2000/svg">
<path d="M10.5002 7.24486C8.70825 7.24486 7.24585 8.70727 7.24585 10.4993C7.24585 12.2913 8.70825 13.7537 10.5002 13.7537C12.2922 13.7537 13.7546 12.2913 13.7546 10.4993C13.7546 8.70727 12.2922 7.24486 10.5002 7.24486ZM20.261 10.4993C20.261 9.1516 20.2732 7.81615 20.1975 6.47094C20.1218 4.90844 19.7654 3.52172 18.6228 2.37914C17.4778 1.23412 16.0935 0.880121 14.531 0.804437C13.1834 0.728753 11.8479 0.740961 10.5027 0.740961C9.15503 0.740961 7.81958 0.728753 6.47436 0.804437C4.91186 0.880121 3.52514 1.23657 2.38256 2.37914C1.23754 3.52416 0.883539 4.90844 0.807855 6.47094C0.732171 7.81859 0.744379 9.15404 0.744379 10.4993C0.744379 11.8445 0.732171 13.1824 0.807855 14.5276C0.883539 16.0901 1.23998 17.4768 2.38256 18.6194C3.52758 19.7644 4.91186 20.1184 6.47436 20.1941C7.82202 20.2698 9.15747 20.2576 10.5027 20.2576C11.8503 20.2576 13.1858 20.2698 14.531 20.1941C16.0935 20.1184 17.4802 19.7619 18.6228 18.6194C19.7678 17.4744 20.1218 16.0901 20.1975 14.5276C20.2756 13.1824 20.261 11.8469 20.261 10.4993ZM10.5002 15.5066C7.72925 15.5066 5.49292 13.2703 5.49292 10.4993C5.49292 7.72826 7.72925 5.49194 10.5002 5.49194C13.2712 5.49194 15.5076 7.72826 15.5076 10.4993C15.5076 13.2703 13.2712 15.5066 10.5002 15.5066ZM15.7127 6.45629C15.0657 6.45629 14.5432 5.93383 14.5432 5.28686C14.5432 4.63988 15.0657 4.11742 15.7127 4.11742C16.3596 4.11742 16.8821 4.63988 16.8821 5.28686C16.8823 5.44048 16.8522 5.59264 16.7935 5.73461C16.7348 5.87658 16.6486 6.00557 16.54 6.1142C16.4314 6.22283 16.3024 6.30896 16.1604 6.36767C16.0184 6.42637 15.8663 6.45648 15.7127 6.45629Z" fill="black"/>
</svg>
