<svg width="21" height="17" viewBox="0 0 21 17" fill="none" xmlns="http://www.w3.org/2000/svg">
<path d="M18.8335 4.33268L10.5002 9.54101L2.16683 4.33268V2.24935L10.5002 7.45768L18.8335 2.24935V4.33268ZM18.8335 0.166016H2.16683C1.01058 0.166016 0.0834961 1.0931 0.0834961 2.24935V14.7493C0.0834961 15.3019 0.302989 15.8318 0.69369 16.2225C1.08439 16.6132 1.6143 16.8327 2.16683 16.8327H18.8335C19.386 16.8327 19.9159 16.6132 20.3066 16.2225C20.6973 15.8318 20.9168 15.3019 20.9168 14.7493V2.24935C20.9168 1.69681 20.6973 1.16691 20.3066 0.77621C19.9159 0.385509 19.386 0.166016 18.8335 0.166016Z" fill="black"/>
</svg>
