<svg width="15" height="20" viewBox="0 0 15 20" fill="none" xmlns="http://www.w3.org/2000/svg">
<path d="M2.77189 0.43881L3.84789 0.0948098C4.85689 -0.22719 5.93489 0.29381 6.36689 1.31181L7.22689 3.33981C7.60089 4.22281 7.39289 5.26181 6.71289 5.90781L4.81789 7.70581C4.93489 8.78181 5.29689 9.84081 5.90289 10.8828C6.47836 11.8909 7.25026 12.7734 8.17289 13.4778L10.4489 12.7178C11.3109 12.4308 12.2509 12.7618 12.7789 13.5388L14.0119 15.3488C14.6269 16.2528 14.5159 17.4988 13.7529 18.2648L12.9359 19.0858C12.1219 19.9028 10.9589 20.1998 9.88389 19.8638C7.34389 19.0718 5.01089 16.7208 2.88089 12.8108C0.747887 8.89481 -0.00511295 5.57081 0.622887 2.84281C0.886887 1.69481 1.70389 0.77981 2.77189 0.43881Z" fill="black"/>
</svg>
