<svg width="21" height="17" viewBox="0 0 21 17" fill="none" xmlns="http://www.w3.org/2000/svg">
<path d="M20.6562 2.20851C19.9092 2.53077 19.0962 2.76271 18.2588 2.85304C19.1282 2.33653 19.7793 1.52052 20.0898 0.558116C19.274 1.04344 18.3802 1.38376 17.4482 1.56398C17.0587 1.14754 16.5876 0.815782 16.0642 0.589384C15.5408 0.362986 14.9765 0.246797 14.4062 0.248057C12.0991 0.248057 10.2436 2.11818 10.2436 4.4131C10.2436 4.73537 10.2827 5.05763 10.3462 5.36769C6.89159 5.18703 3.81054 3.53663 1.76221 1.00978C1.38898 1.64727 1.19339 2.37312 1.1958 3.11183C1.1958 4.55714 1.93066 5.83156 3.05127 6.58107C2.39088 6.55506 1.74595 6.37355 1.16894 6.05128V6.10255C1.16894 8.12648 2.59961 9.80373 4.50634 10.1895C4.14833 10.2825 3.78004 10.33 3.41015 10.3311C3.13916 10.3311 2.88281 10.3042 2.62402 10.2676C3.15136 11.918 4.68701 13.1167 6.51562 13.1558C5.08496 14.2764 3.29297 14.9356 1.34717 14.9356C0.998046 14.9356 0.675781 14.9234 0.341309 14.8843C2.18701 16.0684 4.37695 16.752 6.73534 16.752C14.3916 16.752 18.581 10.4092 18.581 4.90382C18.581 4.72316 18.581 4.54249 18.5688 4.36183C19.3794 3.76857 20.0898 3.0337 20.6562 2.20851Z" fill="black"/>
</svg>
